#!OML:ASF F:\twosubjects\two\Thursday\Session 1\justin.ASF
:FULLY-SPECIFIED
:DEGREES
685
root 11.2662 17.9044 -16.5142 2.96889 -75.0046 5.43113
lowerback -0.977712 1.77149 -2.17568
upperback -1.43335 2.37005 2.30704
thorax -1.10987 1.21706 3.58751
lowerneck -21.0006 5.728 -2.73931
upperneck 21.7431 8.57025 1.02476
head 10.2415 3.79979 2.05877
rclavicle 1.2593e-013 3.18055e-014
rhumerus -38.8411 -33.7037 -58.0295
rradius 31.7916
rwrist -3.52146
rhand -15.1742 13.7892
rfingers 7.12502
rthumb 10.9967 -15.9027
lclavicle 1.2593e-013 3.18055e-014
lhumerus -35.4625 19.5128 74.2085
lradius 30.8803
lwrist -15.3699
lhand 2.08328 38.0718
lfingers 7.12502
lthumb 27.5842 66.0703
rfemur -189.813 -174.473 201.66
rtibia 26.0355
rfoot -22.2194 -11.9621
rtoes -6.14648
lfemur 178.792 175.359 162.161
ltibia 5.99105
lfoot -8.31365 2.08283
ltoes -14.7976
686
root 11.2541 17.9027 -16.5143 3.97749 -74.9936 4.2738
lowerback -0.963823 1.71556 -1.95187
upperback -1.38647 2.29339 2.47962
thorax -1.06165 1.1752 3.64062
lowerneck -21.1328 5.71988 -2.95657
upperneck 21.8623 8.60943 1.13619
head 10.2916 3.80866 2.14597
rclavicle -1.00386e-014 -1.11319e-014
rhumerus -38.5465 -33.4051 -58.1937
rradius 31.7602
rwrist -3.47679
rhand -15.1631 13.665
rfingers 7.12502
rthumb 11.0075 -16.0264
lclavicle -1.00386e-014 -1.11319e-014
lhumerus -35.3396 19.2528 74.4912
lradius 30.9419
lwrist -14.8094
lhand 2.25709 38.532
lfingers 7.12502
lthumb 27.7504 66.5038
rfemur -189.585 -174.51 202.001
rtibia 25.9228
rfoot -22.2112 -12.0405
rtoes -6.27707
lfemur 178.883 175.353 162.532
ltibia 6.12498
lfoot -8.30126 2.13984
ltoes -14.9503
687
root 11.2413 17.9036 -16.5118 4.89785 -75.0077 3.26249
lowerback -0.999858 1.66195 -1.72012
upperback -1.36906 2.21985 2.59672
thorax -1.01348 1.13493 3.63289
lowerneck -21.2826 5.69699 -3.06661
upperneck 21.9648 8.59041 1.26012
head 10.3448 3.80195 2.21286
rclavicle 3.86636e-014 9.54166e-015
rhumerus -38.2999 -33.1739 -58.4283
rradius 31.7806
rwrist -3.33399
rhand -15.3585 13.3199
rfingers 7.12502
rthumb 10.819 -16.3814
lclavicle 3.86636e-014 9.54166e-015
lhumerus -35.3086 19.2652 74.6169
lradius 31.0372
lwrist -14.7495
lhand 2.13079 38.722
lfingers 7.12502
lthumb 27.6297 66.7132
rfemur -189.441 -174.59 202.273
rtibia 25.8515
rfoot -22.2443 -12.0481
rtoes -6.15337
lfemur 178.977 175.32 162.822
ltibia 6.16283
lfoot -8.34603 2.24386
ltoes -13.9085
688
root 11.2304 17.9076 -16.5108 4.74974 -74.9254 3.4851
lowerback -1.12069 1.58622 -1.86416
upperback -1.43809 2.12038 2.62641
thorax -1.01573 1.08748 3.74782
lowerneck -21.087 5.68231 -3.11706
upperneck 21.8546 8.56378 1.30333
head 10.2648 3.79649 2.22086
rclavicle 7.96133e-014 3.57812e-014
rhumerus -38.2383 -33.0306 -58.4676
rradius 31.822
rwrist -3.32707
rhand -14.9928 13.2038
rfingers 7.12502
rthumb 11.1717 -16.4788
lclavicle 7.96133e-014 3.57812e-014
lhumerus -35.3645 19.5254 74.6236
lradius 31.0758
lwrist -15.1529
lhand 1.73269 38.6803
lfingers 7.12502
lthumb 27.2489 66.7318
rfemur -189.475 -174.596 202.218
rtibia 25.8473
rfoot -22.3219 -12.0616
rtoes -5.98604
lfemur 178.999 175.404 162.759
ltibia 5.99238
lfoot -8.29247 2.24884
ltoes -12.9978
689
root 11.2191 17.9085 -16.5108 3.90628 -74.9096 4.48006
lowerback -1.2522 1.64127 -2.19091
upperback -1.57473 2.19816 2.49497
thorax -1.09615 1.13272 3.79773
lowerneck -20.6166 5.55053 -3.23782
upperneck 21.6414 8.31599 1.60195
head 10.0865 3.72163 2.28411
rclavicle 8.05575e-014 1.59028e-015
rhumerus -38.5398 -33.0998 -58.3231
rradius 31.9137
rwrist -3.57225
rhand -14.4793 13.1653
rfingers 7.12502
rthumb 11.6669 -16.4899
lclavicle 8.05575e-014 1.59028e-015
lhumerus -35.355 19.2441 74.7195
lradius 31.1077
lwrist -15.3107
lhand 0.841558 38.7309
lfingers 7.12502
lthumb 26.3962 66.9133
rfemur -189.594 -174.593 201.959
rtibia 25.9048
rfoot -22.3914 -12.1045
rtoes -6.06752
lfemur 179.104 175.435 162.473
ltibia 5.58149
lfoot -8.00172 2.1929
ltoes -13.9586
690
root 11.2045 17.9051 -16.5048 3.16927 -75.0279 5.28544
lowerback -1.38995 1.78253 -2.34386
upperback -1.65748 2.38979 2.29888
thorax -1.11769 1.23112 3.68368
lowerneck -20.3707 5.37149 -3.18813
upperneck 21.5915 7.97133 1.86421
head 10.0223 3.60329 2.30929
rclavicle -1.67973e-014 7.95139e-016
rhumerus -38.8397 -33.1813 -58.324
rradius 31.9464
rwrist -3.7714
rhand -14.7679 13.083
rfingers 7.12502
rthumb 11.3886 -16.5877
lclavicle -1.67973e-014 7.95139e-016
lhumerus -35.2472 18.5857 74.84
lradius 31.1601
lwrist -15.1447
lhand 0.713419 38.9719
lfingers 7.12502
lthumb 26.2735 67.1726
rfemur -189.628 -174.57 201.7
rtibia 26.0052
rfoot -22.4851 -12.0037
rtoes -6.1702
lfemur 179.45 175.33 162.212
ltibia 4.97586
lfoot -7.69934 2.27383
ltoes -15.2651
691
root 11.189 17.902 -16.4984 3.23123 -75.139 5.28584
lowerback -1.64488 1.82284 -2.36963
upperback -1.672 2.44661 2.29177
thorax -0.995254 1.25777 3.69952
lowerneck -20.3842 5.32334 -3.1637
upperneck 21.6932 7.86726 1.98562
head 10.0593 3.56935 2.33726
rclavicle 3.42407e-014 -6.36111e-015
rhumerus -38.8021 -33.0975 -58.3855
rradius 31.8591
rwrist -3.72574
rhand -15.263 13.2062
rfingers 7.12502
rthumb 10.9111 -16.4903
lclavicle 3.42407e-014 -6.36111e-015
lhumerus -35.519 18.5667 74.8892
lradius 31.8718
lwrist -15.2002
lhand 1.48725 39.5396
lfingers 7.12502
lthumb 27.0141 67.6278
rfemur -189.676 -174.487 201.674
rtibia 26.1001
rfoot -22.5665 -11.8593
rtoes -6.27896
lfemur 179.827 175.217 162.177
ltibia 4.26145
lfoot -7.47398 2.34012
ltoes -17.0795
692
root 11.1768 17.9012 -16.4935 3.22558 -75.1086 5.35167
lowerback -1.8639 1.91037 -2.35997
upperback -1.66637 2.56631 2.17034
thorax -0.87038 1.31488 3.57707
lowerneck -20.4466 5.18185 -3.18686
upperneck 21.7807 7.57941 2.38091
head 10.0909 3.4821 2.44446
rclavicle -2.51463e-014 -2.8625e-014
rhumerus -39.037 -33.6386 -58.1631
rradius 31.8056
rwrist -3.32884
rhand -15.0105 13.3853
rfingers 7.12502
rthumb 11.1546 -16.2982
lclavicle -2.51463e-014 -2.8625e-014
lhumerus -35.7017 18.2635 75.0054
lradius 32.7987
lwrist -15.1977
lhand 1.70866 39.9575
lfingers 7.12502
lthumb 27.2259 68.0127
rfemur -189.703 -174.409 201.653
rtibia 26.136
rfoot -22.6099 -11.8736
rtoes -6.37764
lfemur 180.087 175.247 162.126
ltibia 3.73114
lfoot -7.24449 2.33219
ltoes -18.7108
693
root 11.1661 17.9019 -16.4843 2.39175 -74.9803 6.22028
lowerback -2.0174 1.56665 -2.69178
upperback -1.63342 2.11391 2.36874
thorax -0.734986 1.0898 3.97276
lowerneck -20.4772 5.29459 -3.88403
upperneck 21.8034 7.8671 2.74946
head 10.0454 3.60261 2.72359
rclavicle -4.39314e-014 -1.59028e-015
rhumerus -38.2271 -32.8011 -58.5758
rradius 31.6383
rwrist -3.17197
rhand -14.4685 13.2326
rfingers 7.12502
rthumb 11.6773 -16.422
lclavicle -4.39314e-014 -1.59028e-015
lhumerus -35.7015 18.8248 75.1396
lradius 32.6078
lwrist -14.7534
lhand 1.76236 39.704
lfingers 7.12502
lthumb 27.2773 67.7511
rfemur -189.639 -174.338 201.379
rtibia 26.1106
rfoot -22.6475 -11.904
rtoes -5.82043
lfemur 180.18 175.388 161.849
ltibia 3.60324
lfoot -7.02476 2.41997
ltoes -17.9612
